<?xml version="1.0" encoding="UTF-8"?>
<svg xmlns="http://www.w3.org/2000/svg" width="22.86324085821854" height="19.932242990654203" viewBox="980.6628323308206 207.8656542056062 22.86324085821854 19.932242990654203" preserveAspectRatio="none">
  <g>
    <defs>
      <path id="s-Path_30-2b5da" d="M1003.5180650133143 213.922007016892 C1003.4583738932976 212.64553536166773 1002.9992114038411 210.8042937177519 1001.1809279276398 209.27528287450417 C999.9641473595905 208.25594213718244 998.3846283634562 207.76004669542382 996.7224603313782 207.88861215437507 C995.0648838540226 208.0171776461682 993.4991398723689 208.74724602421858 992.3236836471348 209.94566002306496 L992.0941024078802 210.17983288272575 L991.8645211686256 209.94566002306496 C990.6844735638257 208.7472459366403 989.1233211368943 208.01717761332634 987.4657444843822 207.88861215437507 C987.2958552080854 207.8702458304597 987.1213733261267 207.8656542056062 986.9514833492035 207.8656542056062 C985.4821634179741 207.8656542056062 984.095492697845 208.35695804885322 983.0072775887469 209.27528304966077 C981.1844026016123 210.80888562278753 980.7298317654039 212.65012709154678 980.6701406433345 213.92659892192762 C980.5828997735125 215.79079851461233 981.2808267485096 217.66877312177758 982.5435235206207 218.9590196163258 L990.5972331134216 227.16425296715988 C990.9967044609667 227.57290755551742 991.5293329097639 227.7978971962604 992.0941027232989 227.7978971962604 C992.6634641791346 227.7978971962604 993.1915010294202 227.572907577412 993.5909723331762 227.16884460946062 L1001.6446826614979 218.96361117104826 C1002.9073794773981 217.6733650268132 1003.6098975090162 215.78620695988985 1003.5180650133143 213.922007016892 Z M1000.5335089030045 217.86162122262618 L992.4797993102037 226.06685457346026 C992.3604170701702 226.18623681349374 992.2318515674299 226.24592794445778 992.0941028457717 226.24592794445778 C991.9563541022189 226.24592794445778 991.8277885994785 226.18623682444104 991.7084063813396 226.06685457346026 L983.6546966133823 217.86162122262618 C982.6904554085129 216.87901353613216 982.1578270035048 215.45101821045287 982.226701287703 214.03220608179683 C982.2909840335996 212.6501270039685 982.9292198885798 211.38283854576744 984.0128433991664 210.4691053186281 C985.922959239702 208.86662819856835 988.8661906568833 209.08702624079973 990.7166155854006 210.9741840449882 L992.0941030209283 212.37922124674202 L993.4715904564558 210.9741840449882 C995.3266069396956 209.08702632837804 998.2698383568769 208.8620366438459 1000.1753626426901 210.46451367632733 C1001.2589861094875 211.378246991045 1001.888038652498 212.64553544924604 1001.9569130242745 214.03220599421854 C1002.0211964543764 215.45561011548853 1001.4885676990552 216.88819690831195 1000.5335089030045 217.86162122262618 L1000.5335089030045 217.86162122262618 Z "></path>
    </defs>
    <g style="mix-blend-mode:normal">
      <use xmlns:xlink="http://www.w3.org/1999/xlink" xlink:href="#s-Path_30-2b5da" fill="#000000" fill-opacity="1.0"></use>
    </g>
  </g>
</svg>
